<?xml version="1.0" encoding="utf-8"?>
<!-- Generator: Adobe Illustrator 23.0.3, SVG Export Plug-In . SVG Version: 6.00 Build 0)  -->
<svg version="1.1" id="레이어_1" xmlns="http://www.w3.org/2000/svg" xmlns:xlink="http://www.w3.org/1999/xlink" x="0px"
	 y="0px" viewBox="0 0 69.2 69.2" style="enable-background:new 0 0 69.2 69.2;" xml:space="preserve">
<style type="text/css">
	.st0{fill:#212222;}
	.st1{fill:#F39517;}
</style>
<g>
	<g>
		<path class="st0" d="M51.4,69.2c-5.1,0-10.2-1.9-14-5.8L5.8,31.8c-7.7-7.7-7.7-20.3,0-28.1L9,0.6c0.8-0.8,2-0.8,2.8,0l14.7,14.7
			c0.6,0.6,0.8,1.6,0.3,2.4l-4.5,8.2l21,21l8.2-4.5c0.8-0.4,1.8-0.3,2.4,0.3l14.7,14.7c0.8,0.8,0.8,2,0,2.8l-3.2,3.2
			C61.6,67.3,56.5,69.2,51.4,69.2z M10.4,4.8L8.6,6.6c-3,3-4.6,7-4.6,11.2S5.6,26,8.6,29l0,0l31.6,31.6c6.2,6.2,16.2,6.2,22.4,0
			l1.7-1.7L52.1,46.6L44,51.1c-0.8,0.4-1.8,0.3-2.4-0.3L18.4,27.6c-0.6-0.6-0.8-1.6-0.3-2.4l4.5-8.2L10.4,4.8z"/>
	</g>
	<path class="st1" d="M67.2,33.6c-1.1,0-2-0.9-2-2C65.2,16.4,52.8,4,37.6,4c-1.1,0-2-0.9-2-2s0.9-2,2-2C55,0,69.2,14.2,69.2,31.6
		C69.2,32.7,68.3,33.6,67.2,33.6z"/>
	<path class="st1" d="M58.3,33.6c-1.1,0-2-0.9-2-2c0-10.3-8.4-18.7-18.7-18.7c-1.1,0-2-0.9-2-2s0.9-2,2-2
		c12.5,0,22.7,10.2,22.7,22.7C60.3,32.7,59.4,33.6,58.3,33.6z"/>
	<path class="st1" d="M49.4,33.6c-1.1,0-2-0.9-2-2c0-5.4-4.4-9.9-9.9-9.9c-1.1,0-2-0.9-2-2s0.9-2,2-2c7.6,0,13.9,6.2,13.9,13.9
		C51.4,32.7,50.5,33.6,49.4,33.6z"/>
</g>
</svg>
