<?xml version="1.0" encoding="utf-8"?>
<!-- Generator: Adobe Illustrator 23.0.3, SVG Export Plug-In . SVG Version: 6.00 Build 0)  -->
<svg version="1.1" id="레이어_1" xmlns="http://www.w3.org/2000/svg" xmlns:xlink="http://www.w3.org/1999/xlink" x="0px"
	 y="0px" viewBox="0 0 66.2 72.2" style="enable-background:new 0 0 66.2 72.2;" xml:space="preserve">
<style type="text/css">
	.st0{fill:#212222;}
	.st1{fill:#F39517;}
</style>
<path class="st0" d="M2,45.5c-1.1,0-2-0.9-2-2V28.7c0-9.3,7.5-16.8,16.8-16.8h35.6c1.1,0,2,0.9,2,2s-0.9,2-2,2H16.8
	C9.8,15.9,4,21.6,4,28.7v14.8C4,44.6,3.1,45.5,2,45.5z"/>
<path class="st0" d="M40.5,27.7c-0.5,0-1-0.2-1.4-0.6c-0.8-0.8-0.8-2,0-2.8l10.4-10.4L39,3.4c-0.8-0.8-0.8-2,0-2.8
	c0.8-0.8,2-0.8,2.8,0l11.9,11.9c0.8,0.8,0.8,2,0,2.8L41.9,27.1C41.5,27.5,41,27.7,40.5,27.7z"/>
<path class="st1" d="M25.7,72.2c-0.5,0-1-0.2-1.4-0.6L12.4,59.7c-0.4-0.4-0.6-0.9-0.6-1.4s0.2-1,0.6-1.4L24.3,45
	c0.8-0.8,2-0.8,2.8,0c0.8,0.8,0.8,2,0,2.8L16.7,58.3l10.4,10.4c0.8,0.8,0.8,2,0,2.8C26.7,72,26.2,72.2,25.7,72.2z"/>
<path class="st1" d="M49.4,60.3H13.9c-1.1,0-2-0.9-2-2s0.9-2,2-2h35.6c7.1,0,12.8-5.8,12.8-12.8V28.7c0-1.1,0.9-2,2-2s2,0.9,2,2
	v14.8C66.2,52.8,58.7,60.3,49.4,60.3z"/>
</svg>
