<?xml version="1.0" encoding="utf-8"?>
<!-- Generator: Adobe Illustrator 23.0.3, SVG Export Plug-In . SVG Version: 6.00 Build 0)  -->
<svg version="1.1" id="레이어_1" xmlns="http://www.w3.org/2000/svg" xmlns:xlink="http://www.w3.org/1999/xlink" x="0px"
	 y="0px" viewBox="0 0 100 100" style="enable-background:new 0 0 100 100;" xml:space="preserve">
<style type="text/css">
	.st0{fill:#CCCCCC;}
	.st1{fill:#F39517;}
</style>
<g>
	<path class="st0" d="M96.1,63.2c-2-1.8-4.7-3.6-7.9-5.4c5-1.1,11.4-3.4,11.4-7.7c0-4.3-6.3-6.6-11.3-7.7c3.3-1.9,6-3.7,8-5.5
		c3.3-2.9,4.5-5.3,3.7-7.4c-1.8-4.3-11.1-2.6-17.4-0.8c2.8-4.4,5.6-10.5,2.6-13.5c-3-3-9.1-0.2-13.5,2.6c1.7-6.3,3.4-15.6-0.8-17.4
		c-2-0.8-4.5,0.4-7.4,3.7c-1.8,2-3.6,4.7-5.5,8C56.2,4.7,53.4,0.6,50,0.6c-4.3,0-6.6,6.3-7.7,11.3c-2-3.6-4.1-6.5-6-8.5
		c-2.7-2.9-5-3.9-6.9-3.1c-2,0.8-2.8,3.3-2.7,7.3c0.1,2.8,0.8,6.2,1.8,10.1c-4.4-2.8-10.5-5.6-13.5-2.6c-3,3-0.2,9.1,2.6,13.5
		c-6.3-1.7-15.6-3.4-17.4,0.8c-0.8,1.9,0.3,4.3,3.2,7c2,1.9,4.9,3.9,8.4,5.9C4.8,43.9,0.6,46.7,0.6,50c0,4.3,6.3,6.6,11.3,7.7
		c-3.2,1.8-6,3.7-8,5.5c-3.3,2.9-4.5,5.4-3.7,7.4c0.7,1.8,2.8,2.7,6.3,2.7c0.5,0,1,0,1.5-0.1c2.7-0.2,6-0.8,9.6-1.8
		c-2.8,4.4-5.6,10.5-2.6,13.5c0.9,0.9,2.1,1.3,3.5,1.3c3.1,0,7-2,10-3.9c-1,3.5-1.6,6.8-1.8,9.4c-0.3,4.4,0.6,7.1,2.6,8
		c0.4,0.2,0.8,0.3,1.3,0.3c1.8,0,3.9-1.4,6.3-4.1c1.7-2,3.5-4.7,5.3-7.8c1.1,5.1,3.4,11.3,7.7,11.3c4.3,0,6.6-6.3,7.7-11.4
		c2.9,5.1,7.6,11.9,11.6,11.9c0.4,0,0.9-0.1,1.3-0.3c2-0.8,2.9-3.5,2.6-7.8c-0.2-2.7-0.8-6-1.8-9.6c3,1.9,6.9,3.9,10,3.9
		c1.4,0,2.6-0.4,3.5-1.3c3-3,0.2-9.1-2.6-13.5c3.4,0.9,7.6,1.8,11.1,1.8c3,0,5.5-0.7,6.3-2.7C100.6,68.6,99.4,66.1,96.1,63.2z
		 M70.9,64.8c0.2-2-0.2-4.4-1.4-6.7c2.5-0.9,4.5-2.2,5.8-3.8c8,4.2,11.2,8.8,10.5,10.5C85,66.6,79.5,67.5,70.9,64.8L70.9,64.8z
		 M64.8,85.7c-1.8,0.7-6.3-2.5-10.5-10.5c1.6-1.3,2.9-3.3,3.8-5.8c2,1,3.9,1.4,5.7,1.4c0.3,0,0.7,0,1-0.1
		C67.5,79.4,66.6,85,64.8,85.7L64.8,85.7z M35.3,85.7c-1.8-0.7-2.7-6.3,0-14.9c0.3,0,0.7,0.1,1,0.1c1.8,0,3.7-0.5,5.7-1.4
		c0.9,2.5,2.2,4.5,3.8,5.8C41.6,83.2,37,86.4,35.3,85.7L35.3,85.7z M14.4,64.8c-0.7-1.8,2.5-6.3,10.5-10.5c1.3,1.6,3.3,2.9,5.8,3.8
		c-1.1,2.4-1.6,4.7-1.4,6.7C20.6,67.5,15.1,66.6,14.4,64.8z M14.4,35.2c0.7-1.8,6.3-2.7,14.9,0c-0.2,2,0.2,4.4,1.4,6.7
		c-2.5,0.9-4.5,2.2-5.8,3.8C16.9,41.5,13.6,37,14.4,35.2L14.4,35.2z M35.3,14.3c1-0.4,2.6,0.4,4.5,2.1c2.1,1.9,4.2,4.9,6.1,8.4
		c-1.6,1.3-2.9,3.3-3.8,5.8c-2.4-1.2-4.7-1.6-6.7-1.4C32.6,20.6,33.5,15,35.3,14.3z M64.8,14.3c1.8,0.7,2.7,6.3,0,14.9
		c-2-0.2-4.4,0.2-6.7,1.4c-0.9-2.5-2.2-4.5-3.8-5.8C58.5,16.9,63.1,13.6,64.8,14.3L64.8,14.3z M85.7,35.2c0.7,1.8-2.5,6.3-10.5,10.5
		C74,44.1,72,42.8,69.5,42c1.1-2.4,1.6-4.7,1.4-6.7C79.5,32.6,85,33.5,85.7,35.2z M66.7,66.7c-1.5,1.5-4.6,1.3-7.8-0.4
		c0.2-1.2,0.3-2.4,0.3-3.6c0-1.3-0.1-2.5-0.3-3.7c1.2,0.2,2.4,0.3,3.7,0.3c1.3,0,2.5-0.1,3.6-0.3C68,62.1,68.2,65.2,66.7,66.7z
		 M41.2,66.2c-3.2,1.7-6.3,1.9-7.8,0.4c-1.5-1.5-1.3-4.6,0.4-7.8c1.2,0.2,2.4,0.3,3.6,0.3c1.3,0,2.5-0.1,3.7-0.3
		c-0.2,1.2-0.3,2.4-0.3,3.7C40.9,63.9,41,65.1,41.2,66.2L41.2,66.2z M26.5,50c0-1.9,1.8-3.3,2.9-3.9c1.1-0.6,2.3-1.1,3.7-1.5
		c0.2,0,0.4,0,0.6-0.1c1.2-0.3,2.5-0.4,3.8-0.4c1.6,0,3.2,0.2,4.7,0.6c0.1,0.1,0.1,0.3,0.2,0.4c-0.9,1.4-1.4,3.1-1.4,4.9
		s0.5,3.5,1.4,4.9c-0.1,0.1-0.1,0.3-0.2,0.4c-1.4,0.4-3,0.6-4.7,0.6c-3.1,0-5.9-0.7-8.1-2C28.3,53.3,26.5,51.9,26.5,50L26.5,50z
		 M33.4,33.4c1.5-1.5,4.6-1.3,7.8,0.4c-0.2,1.2-0.3,2.4-0.3,3.6c0,1.3,0.1,2.5,0.3,3.7c-1.2-0.2-2.4-0.3-3.7-0.3
		c-1.3,0-2.5,0.1-3.6,0.3C32.1,38,31.9,34.9,33.4,33.4z M44.1,50c0-3.3,2.7-5.9,5.9-5.9c3.3,0,5.9,2.7,5.9,5.9s-2.7,5.9-5.9,5.9
		C46.8,55.9,44.1,53.3,44.1,50L44.1,50z M58.9,33.8c3.2-1.7,6.3-1.9,7.8-0.4c1.5,1.5,1.3,4.6-0.4,7.8c-1.2-0.2-2.4-0.3-3.6-0.3
		c-1.3,0-2.5,0.1-3.7,0.3c0.2-1.2,0.3-2.4,0.3-3.7C59.2,36.2,59.1,34.9,58.9,33.8L58.9,33.8z M62.6,55.9c-1.6,0-3.2-0.2-4.7-0.6
		c-0.1-0.1-0.1-0.3-0.2-0.4c0.9-1.4,1.4-3.1,1.4-4.9c0-1.8-0.5-3.5-1.4-4.9c0.1-0.1,0.1-0.3,0.2-0.4c1.4-0.4,3-0.6,4.7-0.6
		c3.1,0,5.9,0.7,8.1,2c1.1,0.6,2.9,2,2.9,3.9c0,1.9-1.8,3.3-2.9,3.9C68.6,55.2,65.7,55.9,62.6,55.9L62.6,55.9z M54,29.4
		c1.3,2.1,2,5,2,8.1c0,1.6-0.2,3.2-0.6,4.7c-0.1,0.1-0.3,0.1-0.4,0.2c-1.4-0.9-3.1-1.4-4.9-1.4c-1.8,0-3.5,0.5-4.9,1.4
		c-0.1-0.1-0.3-0.1-0.4-0.2c-0.4-1.4-0.6-3-0.6-4.7c0-3.1,0.7-5.9,2-8.1c0.6-1.1,2-2.9,3.9-2.9C52,26.5,53.3,28.3,54,29.4L54,29.4z
		 M46.1,70.7c-1.3-2.1-2-5-2-8.1c0-1.6,0.2-3.2,0.6-4.7c0.1-0.1,0.3-0.1,0.4-0.2c1.4,0.9,3.1,1.4,4.9,1.4c1.8,0,3.5-0.5,4.9-1.4
		c0.1,0.1,0.3,0.1,0.4,0.2c0.4,1.4,0.6,3,0.6,4.7c0,3.1-0.7,5.9-2,8.1c-0.6,1.1-2,2.9-3.9,2.9C48.1,73.6,46.7,71.7,46.1,70.7
		L46.1,70.7z M96.2,50c0,1.5-4.1,4.2-13.3,5.4c-1.9-1.5-4-2.8-6.3-4c0.1-0.4,0.1-0.9,0.1-1.4c0-0.5-0.1-0.9-0.1-1.4
		c2.3-1.2,4.4-2.6,6.3-4C92.1,45.9,96.2,48.5,96.2,50L96.2,50z M96.8,30.6c0.2,0.5-1.5,3.4-8.3,7.6c0.6-1.5,0.8-2.9,0.2-4.3
		c-0.6-1.4-1.7-2.3-3.2-2.9C93.3,29.3,96.6,30.1,96.8,30.6z M82.7,17.4c1.1,1.1,0,5.9-5.6,13.2c-2.3,0.3-4.8,0.9-7.3,1.6
		c-0.2-0.4-0.5-0.7-0.9-1.1c-0.3-0.3-0.7-0.6-1.1-0.9c0.8-2.4,1.3-4.9,1.6-7.3c3.2-2.5,6.4-4.3,8.9-5.3
		C80.9,16.8,82.3,16.9,82.7,17.4L82.7,17.4z M69.4,3.3C70,3.5,70.8,6.7,69,14.5c-0.6-1.5-1.5-2.6-2.9-3.2c-1.4-0.6-2.8-0.4-4.3,0.2
		C66,4.7,68.9,3,69.4,3.3z M50,3.8c1.5,0,4.2,4.1,5.4,13.3c-1.5,1.9-2.8,4-4,6.3c-0.4-0.1-0.9-0.1-1.4-0.1c-0.5,0-0.9,0.1-1.4,0.1
		c-1.2-2.2-2.6-4.4-4-6.3C45.9,8.1,48.6,3.8,50,3.8z M30.7,3.3c0.2-0.1,1.3,0.1,3.3,2.4c1.4,1.5,2.8,3.5,4.4,5.9
		c-1.5-0.7-2.9-0.8-4.3-0.2c-1.4,0.6-2.3,1.7-2.9,3.2C29.3,6.7,30.2,3.5,30.7,3.3z M17.4,17.4c0.5-0.5,1.8-0.6,4.3,0.3
		c2.5,0.9,5.6,2.8,8.8,5.3c0.3,2.3,0.8,4.8,1.6,7.3c-0.4,0.2-0.7,0.5-1.1,0.9c-0.3,0.3-0.6,0.7-0.9,1.1c-2.5-0.8-5-1.3-7.3-1.6
		c-2.5-3.2-4.3-6.4-5.3-8.9C16.8,19.2,16.9,17.8,17.4,17.4L17.4,17.4z M3.3,30.6c0.2-0.5,3.5-1.4,11.3,0.5c-1.9,0.7-2.8,1.9-3.2,2.9
		c-0.6,1.4-0.4,2.8,0.2,4.3c-2.4-1.5-4.4-2.9-5.9-4.3C3.4,31.9,3.2,30.8,3.3,30.6L3.3,30.6z M3.9,50c0-1.5,4.1-4.2,13.3-5.4
		c1.9,1.5,4,2.8,6.3,4c-0.1,0.4-0.1,0.9-0.1,1.4s0.1,0.9,0.1,1.4c-2.3,1.2-4.4,2.6-6.3,4C8.1,54.2,3.9,51.5,3.9,50L3.9,50z
		 M3.3,69.4c-0.2-0.5,1.5-3.4,8.3-7.6c-0.6,1.5-0.8,2.9-0.2,4.3c0.6,1.4,1.7,2.3,3.2,2.9C6.8,70.8,3.5,69.9,3.3,69.4z M17.4,82.7
		c-0.5-0.5-0.6-1.8,0.3-4.4c0.9-2.5,2.8-5.6,5.3-8.8c2.3-0.3,4.8-0.9,7.3-1.6c0.2,0.4,0.5,0.7,0.9,1.1c0.3,0.3,0.7,0.6,1.1,0.9
		c-0.8,2.5-1.3,5-1.6,7.3C23.2,82.7,18.5,83.7,17.4,82.7z M34.5,93.8c-2.4,2.8-3.7,3.1-3.9,3c-0.6-0.2-1.4-3.5,0.5-11.3
		c0.7,1.9,1.9,2.8,2.9,3.2c0.6,0.2,1.2,0.4,1.8,0.4c0.8,0,1.6-0.2,2.5-0.6C37,90.6,35.7,92.4,34.5,93.8L34.5,93.8z M50,96.2
		c-0.6,0-1.7-0.9-2.8-3.3c-1.1-2.4-2-5.8-2.5-9.7c0-0.1,0-0.2,0-0.3c1.4-1.9,2.8-4,4-6.3c0.4,0.1,0.9,0.1,1.4,0.1
		c0.5,0,0.9-0.1,1.4-0.1c1.2,2.3,2.6,4.5,4,6.3C54.2,92,51.5,96.2,50,96.2L50,96.2z M69.4,96.8c0,0-0.1,0-0.1,0
		c-0.8,0-3.6-1.9-7.5-8.3c0.9,0.4,1.8,0.6,2.5,0.6c0.7,0,1.3-0.1,1.8-0.4c1.4-0.6,2.3-1.7,2.9-3.2C70.8,93.3,70,96.5,69.4,96.8
		L69.4,96.8z M82.7,82.7c-1.1,1.1-5.9,0-13.2-5.6c-0.3-2.3-0.9-4.8-1.6-7.3c0.4-0.2,0.7-0.5,1.1-0.9c0.3-0.3,0.6-0.7,0.9-1.1
		c2.4,0.8,4.9,1.3,7.3,1.6c2.5,3.2,4.3,6.4,5.3,8.9C83.3,80.8,83.2,82.2,82.7,82.7z M96.8,69.4c-0.2,0.5-3.5,1.4-11.3-0.5
		c1.5-0.6,2.6-1.5,3.2-2.9c0.6-1.4,0.4-2.8-0.2-4.3C95.3,65.9,97,68.8,96.8,69.4z"/>
	<path class="st1" d="M50.1,59.3c-5.1,0-9.3-4.2-9.3-9.3s4.2-9.3,9.3-9.3s9.3,4.2,9.3,9.3S55.2,59.3,50.1,59.3z M50.1,44.2
		c-3.2,0-5.8,2.6-5.8,5.8c0,3.2,2.6,5.8,5.8,5.8s5.8-2.6,5.8-5.8C55.8,46.8,53.2,44.2,50.1,44.2z"/>
	<path class="st1" d="M57.8,45.1l1.1-4c0,0,1.6-7.2-2-13.3s-8-4.5-8-4.5s-4.6,0.4-6.8,7c-2.2,6.6-1,11.8,0.3,14.7l2.7-2.9
		c0,0-2-3.8,0.2-10.7c2.1-6.3,6.4-5.2,7.5-3.8c1.1,1.4,3.5,4,3.1,11.6c0,0-0.3,2.3-0.5,2.7c0,0-0.1,0-0.5,0.1
		c-0.4,0.1,2.6,2.9,2.6,2.9L57.8,45.1z"/>
	<path class="st1" d="M42.3,54.9l-1.1,4c0,0-1.6,7.2,2,13.3c3.6,6,8,4.5,8,4.5s4.6-0.4,6.8-7c2.2-6.6,1-11.8-0.3-14.7l-2.7,2.9
		c0,0,2,3.8-0.2,10.7c-2.1,6.3-6.4,5.2-7.5,3.8c-1.1-1.4-3.4-4-3.1-11.6c0,0,0.3-2.3,0.5-2.7c0,0,0.1,0,0.5-0.1
		c0.4-0.1-2.6-2.9-2.6-2.9L42.3,54.9z"/>
	<path class="st1" d="M45.1,42.3l-4-1.1c0,0-7.2-1.6-13.3,2s-4.5,8-4.5,8s0.4,4.6,7,6.8c6.6,2.2,11.8,1,14.7-0.3L42.3,55
		c0,0-3.8,2-10.7-0.2c-6.3-2.1-5.3-6.3-3.9-7.4c1.4-1.1,4.1-3.6,11.7-3.2c0,0,2.3,0.3,2.7,0.5c0,0,0,0.1,0.1,0.5
		c0.1,0.4,2.9-2.6,2.9-2.6L45.1,42.3z"/>
	<path class="st1" d="M55,57.8l4,1.1c0,0,7.2,1.6,13.3-2c6-3.6,4.5-8,4.5-8s-0.4-4.6-7-6.8c-6.6-2.2-11.8-1-14.7,0.3l2.9,2.7
		c0,0,3.8-2,10.7,0.2c6.3,2.1,5.3,6.3,3.9,7.4c-1.4,1.1-4.1,3.6-11.7,3.2c0,0-2.3-0.3-2.7-0.5c0,0,0-0.1-0.1-0.5
		c-0.1-0.4-2.9,2.6-2.9,2.6L55,57.8z"/>
</g>
</svg>
