<?xml version="1.0" encoding="utf-8"?>
<!-- Generator: Adobe Illustrator 23.0.3, SVG Export Plug-In . SVG Version: 6.00 Build 0)  -->
<svg version="1.1" id="레이어_1" xmlns="http://www.w3.org/2000/svg" xmlns:xlink="http://www.w3.org/1999/xlink" x="0px"
	 y="0px" viewBox="0 0 74 80.4" style="enable-background:new 0 0 74 80.4;" xml:space="preserve">
<style type="text/css">
	.st0{fill:#CCCCCC;}
	.st1{fill:#F39517;}
</style>
<g>
	<path class="st0" d="M42,80.4H5c-0.8,0-1.5-0.7-1.5-1.5V1.5C3.5,0.7,4.2,0,5,0h37c0.8,0,1.5,0.7,1.5,1.5v77.4
		C43.5,79.7,42.9,80.4,42,80.4z M6.5,77.4h34V3h-34V77.4z"/>
	<path class="st0" d="M68.9,80.4H42c-0.8,0-1.5-0.7-1.5-1.5V31.8c0-0.8,0.7-1.5,1.5-1.5h26.9c0.8,0,1.5,0.7,1.5,1.5v47.1
		C70.4,79.7,69.8,80.4,68.9,80.4z M43.5,77.4h23.9V33.3H43.5V77.4z"/>
</g>
<path class="st1" d="M33.5,80.4H13.6V57.2h19.8V80.4z M16.6,77.4h13.8V60.2H16.6V77.4z"/>
<rect x="48.8" y="49.3" class="st0" width="13.5" height="3"/>
<rect x="48.8" y="40.4" class="st0" width="13.5" height="3"/>
<rect x="48.8" y="58.3" class="st0" width="13.5" height="3"/>
<rect x="48.8" y="67.3" class="st0" width="13.5" height="3"/>
<g>
	<rect x="13.5" y="43.7" class="st1" width="20.2" height="3"/>
	<rect x="13.5" y="27.7" class="st1" width="20.2" height="3"/>
	<rect x="13.5" y="11.8" class="st1" width="20.2" height="3"/>
</g>
<rect x="0" y="77.4" class="st0" width="74" height="3"/>
</svg>
