<?xml version="1.0" encoding="utf-8"?>
<!-- Generator: Adobe Illustrator 23.0.3, SVG Export Plug-In . SVG Version: 6.00 Build 0)  -->
<svg version="1.1" id="레이어_1" xmlns="http://www.w3.org/2000/svg" xmlns:xlink="http://www.w3.org/1999/xlink" x="0px"
	 y="0px" viewBox="0 0 489.4 127" style="enable-background:new 0 0 489.4 127;" xml:space="preserve">
<style type="text/css">
	.st0{fill:#E68211;}
</style>
<g>
	<path d="M290.5,92.5c6.4,0,11.5-4.6,11.5-10.2c0-5.7-5.1-10.2-11.5-10.2c-6.4,0-11.5,4.6-11.5,10.2
		C279.1,87.9,284.2,92.5,290.5,92.5z M290.5,76.9c2.6,0,4.7,2.5,4.7,5.4c0,2.9-2.1,5.4-4.7,5.4c-2.6,0-4.7-2.5-4.7-5.4
		C285.8,79.4,287.9,76.9,290.5,76.9z M300.6,107h11v4.1h6.9V76c0-1.9-1.5-3.5-3.5-3.5h-3.5v29.7h-11V107z M257.2,109.1h3.4
		c1.9,0,3.4-1.5,3.4-3.4V77.3c0-1-0.6-1.6-1.7-1.6h-34.6v4.8h29.4V109.1z M292.9,117.8v-9H286v12.2c0,1,0.6,1.6,1.7,1.7h28.9
		c1.3,0,2.4-1.1,2.4-2.4v-2.4H292.9z M252.4,97.8c0-1.9-1.5-3.4-3.4-3.4h-3.4v21.1h-4.2V97.8c0-1.9-1.5-3.4-3.4-3.4h-3.4v21.1h-10.9
		v4.8h42c1.3,0,2.4-1.1,2.4-2.4v-2.4h-15.6V97.8z M292.9,106.3v-7.2h15.5v-4.8h-33.9v4.8h11.4v7.2H292.9z"/>
	<path d="M367,76.1h-24.2v4.8h21v8.6h-21.6v19.3c0,0.9,0.8,1.7,1.7,1.7h24.6c0.9,0,1.6-0.8,1.6-1.7v-3.1h-21.5V94.3h21.5V79
		C370,77.4,368.7,76.1,367,76.1z"/>
	<g>
		<path d="M408.7,75L408.7,75c-7.9,0-14.4,6.3-14.4,14c0,7.6,6.5,13.9,14.3,13.9h0.1c7.8,0,14.3-6.3,14.3-13.9
			C423.1,81.3,416.6,75,408.7,75z M408.7,98.1c-4.2,0-7.5-3.8-7.5-9.1c0-5.3,3.3-9.2,7.5-9.2c4.3,0,7.5,3.9,7.5,9.2
			C416.2,94.3,413,98.1,408.7,98.1z"/>
	</g>
	<path d="M61.5,103.1c-0.7-2.3-8.8-30.6-8.8-30.6h-8.5c0,0-8.1,28.3-8.8,30.6c-0.5-2.3-7.1-30.6-7.1-30.6H18.2l11.6,50.2h9.6
		c0,0,8.3-29,8.9-31.1c0.6,2.1,9,31.1,9,31.1h9.7l11.6-50.2H68.6C68.6,72.5,62,100.7,61.5,103.1z M179.7,72.5c0,0,0,29.7,0,31.8
		c-1.2-1.7-21.3-31.8-21.3-31.8h-9.7v50.2H159c0,0,0-29.7,0-31.7c1.2,1.7,21.4,31.7,21.4,31.7h9.5V72.5H179.7z M60.3,21.8
		C59.8,21,48.4,4.4,48.4,4.4H28.1c0,0-16.7,17-17.8,18.1c0-1.5,0-18.1,0-18.1H0v50.2h10.4c0,0,0-18.7,0-20.2
		c1.1,1.1,19.7,20.2,19.7,20.2h12.3c0,0-23.9-25.8-24.3-26.3c0.3-0.4,15.1-15.9,20.5-21.7c4.1,6.6,16.4,26.2,16.5,26.3
		c0,0.2,0,21.7,0,21.7h10.4c0,0,0-21.5,0-21.7c0.1-0.2,17.8-28.5,17.8-28.5H72.2C72.2,4.4,60.8,21,60.3,21.8z"/>
	<path class="st0" d="M111.3,0C95,0,81.8,13.2,81.8,29.5c0,12.9,8.3,23.8,19.8,27.8c2.1-3.2,5.6-5.3,9.7-5.3c4.1,0,7.6,2.1,9.7,5.3
		c11.5-4,19.8-15,19.8-27.8C140.7,13.2,127.5,0,111.3,0z M111.3,47.3c-9.8,0-17.8-8-17.8-17.8c0-9.8,8-17.8,17.8-17.8
		c9.8,0,17.8,8,17.8,17.8C129.1,39.3,121.1,47.3,111.3,47.3z"/>
	<path class="st0" d="M121,69.7c-2.1,3.2-5.6,5.3-9.7,5.3c-4.1,0-7.6-2.1-9.7-5.3c-11.5,4-19.8,15-19.8,27.8
		c0,16.2,13.2,29.5,29.5,29.5c16.2,0,29.5-13.2,29.5-29.5C140.7,84.7,132.5,73.7,121,69.7z M111.3,115.4c-9.8,0-17.8-8-17.8-17.8
		s8-17.8,17.8-17.8c9.8,0,17.8,8,17.8,17.8S121.1,115.4,111.3,115.4z"/>
	<path d="M441.9,110.4v3.5c0,1,0.6,1.6,1.7,1.7h43.3c1.4,0,2.4-1.1,2.4-2.4v-2.7H441.9z"/>
	<path d="M448,80.6L448,80.6l6.2,0v16.8H448v4.9h35.3v-4.9h-6.1V80.6h6.2v-3.3c0-0.9-0.7-1.6-1.6-1.6h-33.9v4.9H448z M460.6,80.6
		h10.1v16.8h-10.1V80.6z"/>
	<g>
		<path d="M429.6,122.8h3.4c1.9,0,3.5-1.6,3.5-3.5V72.6h-6.9L429.6,122.8z"/>
	</g>
	<path d="M382.9,92V72.6h-6.8v50.2h3.4c1.9,0,3.4-1.5,3.4-3.5V97.7h7.5V92H382.9z"/>
</g>
</svg>
