<?xml version="1.0" encoding="utf-8"?>
<!-- Generator: Adobe Illustrator 23.0.3, SVG Export Plug-In . SVG Version: 6.00 Build 0)  -->
<svg version="1.1" id="레이어_1" xmlns="http://www.w3.org/2000/svg" xmlns:xlink="http://www.w3.org/1999/xlink" x="0px"
	 y="0px" viewBox="0 0 60.2 80.4" style="enable-background:new 0 0 60.2 80.4;" xml:space="preserve">
<style type="text/css">
	.st0{fill:#F39517;}
	.st1{fill:#CCCCCC;}
</style>
<path class="st0" d="M30.1,60.2C20,60.2,11.8,52,11.8,41.9V18.3C11.8,8.2,20,0,30.1,0s18.3,8.2,18.3,18.3v23.5
	C48.4,52,40.2,60.2,30.1,60.2z M30.1,3c-8.4,0-15.3,6.9-15.3,15.3v23.5c0,8.4,6.9,15.3,15.3,15.3s15.3-6.9,15.3-15.3V18.3
	C45.4,9.9,38.5,3,30.1,3z"/>
<path class="st1" d="M30.1,71.9C13.5,71.9,0,58.4,0,41.9V30.1c0-0.8,0.7-1.5,1.5-1.5h11.8v3H3v10.3c0,14.9,12.2,27.1,27.1,27.1
	s27.1-12.2,27.1-27.1V31.6H46.9v-3h11.8c0.8,0,1.5,0.7,1.5,1.5v11.8C60.2,58.4,46.7,71.9,30.1,71.9z"/>
<rect x="28.6" y="70.4" class="st1" width="3" height="8.4"/>
<rect x="15" y="77.4" class="st1" width="30.3" height="3"/>
<rect x="13.3" y="28.6" class="st0" width="10.1" height="3"/>
<rect x="13.3" y="38.7" class="st0" width="10.1" height="3"/>
<rect x="13.3" y="18.5" class="st0" width="10.1" height="3"/>
<rect x="36.8" y="28.6" class="st0" width="10.1" height="3"/>
<rect x="36.8" y="38.7" class="st0" width="10.1" height="3"/>
<rect x="36.8" y="18.5" class="st0" width="10.1" height="3"/>
</svg>
