<?xml version="1.0" encoding="utf-8"?>
<!-- Generator: Adobe Illustrator 23.0.3, SVG Export Plug-In . SVG Version: 6.00 Build 0)  -->
<svg version="1.1" id="레이어_1" xmlns="http://www.w3.org/2000/svg" xmlns:xlink="http://www.w3.org/1999/xlink" x="0px"
	 y="0px" viewBox="0 0 60.3 66.2" style="enable-background:new 0 0 60.3 66.2;" xml:space="preserve">
<style type="text/css">
	.st0{fill:#212222;}
	.st1{fill:#F39517;}
</style>
<g>
	<path class="st0" d="M-1885.6,21h-20.7c-6,0-10.9-4.9-10.9-10.9v-44.5c0-6,4.9-10.9,10.9-10.9h20.7c6,0,10.9,4.9,10.9,10.9v7.4
		c0,1.1-0.9,2-2,2s-2-0.9-2-2v-7.4c0-3.8-3.1-6.9-6.9-6.9h-20.7c-3.8,0-6.9,3.1-6.9,6.9v44.5c0,3.8,3.1,6.9,6.9,6.9h20.7
		c3.8,0,6.9-3.1,6.9-6.9V2.7c0-1.1,0.9-2,2-2s2,0.9,2,2v7.4C-1874.7,16.1-1879.6,21-1885.6,21z"/>
	<g>
		<path class="st1" d="M-1869.9,0.3c-0.5,0-1.1-0.2-1.5-0.6c-0.8-0.8-0.7-2.1,0.1-2.8l9.4-8.9l-9.4-8.9c-0.8-0.8-0.8-2-0.1-2.8
			c0.8-0.8,2-0.8,2.8-0.1l10.9,10.4c0.4,0.4,0.6,0.9,0.6,1.5s-0.2,1.1-0.6,1.5l-10.9,10.4C-1868.9,0.1-1869.4,0.3-1869.9,0.3z"/>
		<rect x="-1894.5" y="-14.1" class="st1" width="35.6" height="4"/>
	</g>
</g>
<g>
	<path class="st0" d="M31.6,66.2H10.9C4.9,66.2,0,61.3,0,55.3V10.9C0,4.9,4.9,0,10.9,0h20.7c6,0,10.9,4.9,10.9,10.9v7.4
		c0,1.1-0.9,2-2,2s-2-0.9-2-2v-7.4c0-3.8-3.1-6.9-6.9-6.9H10.9C7.1,4,4,7.1,4,10.9v44.5c0,3.8,3.1,6.9,6.9,6.9h20.7
		c3.8,0,6.9-3.1,6.9-6.9v-7.4c0-1.1,0.9-2,2-2s2,0.9,2,2v7.4C42.5,61.3,37.6,66.2,31.6,66.2z"/>
	<g>
		<path class="st1" d="M47.4,45.5c-0.5,0-1.1-0.2-1.5-0.6c-0.8-0.8-0.7-2.1,0.1-2.8l9.4-8.9L46,24.2c-0.8-0.8-0.8-2-0.1-2.8
			c0.8-0.8,2-0.8,2.8-0.1l10.9,10.4c0.4,0.4,0.6,0.9,0.6,1.5s-0.2,1.1-0.6,1.5L48.8,44.9C48.4,45.3,47.9,45.5,47.4,45.5z"/>
		<rect x="22.7" y="31.1" class="st1" width="35.6" height="4"/>
	</g>
</g>
</svg>
