<?xml version="1.0" encoding="utf-8"?>
<!-- Generator: Adobe Illustrator 23.0.3, SVG Export Plug-In . SVG Version: 6.00 Build 0)  -->
<svg version="1.1" id="레이어_1" xmlns="http://www.w3.org/2000/svg" xmlns:xlink="http://www.w3.org/1999/xlink" x="0px"
	 y="0px" viewBox="0 0 80.4 80.4" style="enable-background:new 0 0 80.4 80.4;" xml:space="preserve">
<style type="text/css">
	.st0{fill:#CCCCCC;}
	.st1{fill:#F39517;}
</style>
<g>
	<path class="st0" d="M1.4,53.5c-0.4,0-0.8-0.2-1.1-0.4C0,52.6-0.2,52,0,51.4l3.9-10.7c-2.6-4.2-4-9-4-14C-0.1,12,11.9,0,26.7,0
		c14.7,0,26.7,12,26.7,26.7c0,0.6,0,1.1-0.1,1.6l0,0.2c-0.1,0.7-0.6,1.3-1.4,1.4c-11.7,0.8-21.2,10.3-22,22
		c-0.1,0.7-0.6,1.3-1.4,1.4l-0.2,0c-0.5,0-1.1,0.1-1.6,0.1c-5,0-9.8-1.4-14-4L2,53.4C1.8,53.4,1.6,53.5,1.4,53.5z M12.8,46.3
		c0.3,0,0.6,0.1,0.8,0.2c3.9,2.5,8.4,3.9,13,3.9c0.1,0,0.3,0,0.4,0c1.5-12.1,11.2-21.9,23.3-23.3c0-0.1,0-0.3,0-0.4
		C50.4,13.7,39.8,3,26.7,3S2.9,13.7,2.9,26.7c0,4.6,1.3,9.1,3.9,13c0.3,0.4,0.3,0.9,0.2,1.3l-3,8.4l8.4-3
		C12.5,46.4,12.7,46.3,12.8,46.3z"/>
	<path class="st0" d="M78.8,80.4c-0.2,0-0.3,0-0.5-0.1l-10.7-3.9c-4.2,2.6-9,4-14,4c-14.7,0-26.7-12-26.7-26.7c0-0.6,0-1.1,0.1-1.6
		l0-0.2C27.9,38.6,38.5,27.9,51.7,27l0.2,0c0.5,0,1.1-0.1,1.6-0.1c14.7,0,26.7,12,26.7,26.7c0,5-1.4,9.8-4,14l3.9,10.7
		c0.2,0.5,0.1,1.2-0.3,1.6C79.6,80.2,79.2,80.4,78.8,80.4z M53.6,29.9c-0.5,0-1,0-1.4,0.1l-0.2,0c-11.7,0.8-21.2,10.3-22,22l0,0.2
		c0,0.5-0.1,0.9-0.1,1.4c0,13.1,10.6,23.7,23.7,23.7c4.6,0,9.1-1.3,13-3.9c0.4-0.3,0.9-0.3,1.3-0.2l8.4,3l-3-8.4
		c-0.2-0.4-0.1-0.9,0.2-1.3c2.5-3.9,3.9-8.4,3.9-13C77.3,40.6,66.7,29.9,53.6,29.9z"/>
</g>
<path class="st1" d="M43.9,58.2c-2.4,0-4.4-2-4.4-4.4c0-2.4,2-4.4,4.4-4.4s4.4,2,4.4,4.4C48.3,56.2,46.4,58.2,43.9,58.2z M43.9,52.3
	c-0.8,0-1.4,0.6-1.4,1.4s0.6,1.4,1.4,1.4s1.4-0.6,1.4-1.4S44.7,52.3,43.9,52.3z"/>
<path class="st1" d="M55.1,58.2c-2.4,0-4.4-2-4.4-4.4c0-2.4,2-4.4,4.4-4.4c2.4,0,4.4,2,4.4,4.4C59.5,56.2,57.6,58.2,55.1,58.2z
	 M55.1,52.3c-0.8,0-1.4,0.6-1.4,1.4s0.6,1.4,1.4,1.4s1.4-0.6,1.4-1.4S55.9,52.3,55.1,52.3z"/>
<path class="st1" d="M66.4,58.2c-2.4,0-4.4-2-4.4-4.4c0-2.4,2-4.4,4.4-4.4c2.4,0,4.4,2,4.4,4.4C70.8,56.2,68.8,58.2,66.4,58.2z
	 M66.4,52.3c-0.8,0-1.4,0.6-1.4,1.4s0.6,1.4,1.4,1.4s1.4-0.6,1.4-1.4S67.2,52.3,66.4,52.3z"/>
</svg>
