<?xml version="1.0" encoding="utf-8"?>
<!-- Generator: Adobe Illustrator 23.0.3, SVG Export Plug-In . SVG Version: 6.00 Build 0)  -->
<svg version="1.1" id="레이어_1" xmlns="http://www.w3.org/2000/svg" xmlns:xlink="http://www.w3.org/1999/xlink" x="0px"
	 y="0px" viewBox="0 0 66.2 72.2" style="enable-background:new 0 0 66.2 72.2;" xml:space="preserve">
<style type="text/css">
	.st0{fill:#212222;}
	.st1{fill:#F39517;}
</style>
<g>
	<path class="st0" d="M64.2,24.7H52.4c-6,0-10.9-4.9-10.9-10.9V2c0-0.8,0.5-1.5,1.2-1.8c0.7-0.3,1.6-0.1,2.2,0.4l20.7,20.7
		c0.6,0.6,0.7,1.4,0.4,2.2C65.8,24.3,65,24.7,64.2,24.7z M45.5,6.8v7c0,3.8,3.1,6.9,6.9,6.9h7L45.5,6.8z"/>
	<path class="st0" d="M37.6,72.2H13.8C6.2,72.2,0,66,0,58.3V22.7C0,15.1,6.2,8.9,13.8,8.9h3.4c0.6,0,1.2,0.3,1.6,0.8
		s0.5,1.1,0.4,1.7c-0.2,0.8-0.3,1.7-0.3,2.5v35.6c0,5.4,4.4,9.9,9.9,9.9H49c0.6,0,1.2,0.3,1.6,0.8c0.4,0.5,0.5,1.1,0.4,1.7
		C49.4,67.9,43.9,72.2,37.6,72.2z M13.8,12.9c-5.4,0-9.9,4.4-9.9,9.9v35.6c0,5.4,4.4,9.9,9.9,9.9h23.7c3.6,0,6.8-1.9,8.5-4.9H28.7
		c-7.6,0-13.9-6.2-13.9-13.9V13.9c0-0.3,0-0.6,0-1H13.8z"/>
	<path class="st0" d="M52.4,63.3H28.7c-7.6,0-13.9-6.2-13.9-13.9V13.9c0-1.1,0.2-2.3,0.5-3.5C16.8,4.3,22.3,0,28.7,0h14.8
		c0.5,0,1,0.2,1.4,0.6l20.7,20.7c0.4,0.4,0.6,0.9,0.6,1.4v26.7C66.2,57.1,60,63.3,52.4,63.3z M28.7,4c-4.5,0-8.4,3-9.5,7.4
		c-0.2,0.8-0.3,1.7-0.3,2.5v35.6c0,5.4,4.4,9.9,9.9,9.9h23.7c5.4,0,9.9-4.4,9.9-9.9V23.6L42.6,4H28.7z"/>
	<g>
		<path class="st1" d="M38.6,45.3c-6,0-10.9-4.9-10.9-10.9c0-6,4.9-10.9,10.9-10.9c6,0,10.9,4.9,10.9,10.9
			C49.5,40.5,44.6,45.3,38.6,45.3z M38.6,27.6c-3.8,0-6.9,3.1-6.9,6.9s3.1,6.9,6.9,6.9s6.9-3.1,6.9-6.9S42.4,27.6,38.6,27.6z"/>
	</g>
	<rect x="46.6" y="39.2" transform="matrix(0.7071 -0.7071 0.7071 0.7071 -17.1727 47.3685)" class="st1" width="4" height="10.4"/>
</g>
</svg>
