<?xml version="1.0" encoding="utf-8"?>
<!-- Generator: Adobe Illustrator 23.0.3, SVG Export Plug-In . SVG Version: 6.00 Build 0)  -->
<svg version="1.1" id="레이어_1" xmlns="http://www.w3.org/2000/svg" xmlns:xlink="http://www.w3.org/1999/xlink" x="0px"
	 y="0px" viewBox="0 0 89.3 68.5" style="enable-background:new 0 0 89.3 68.5;" xml:space="preserve">
<style type="text/css">
	.st0{fill:#FD9800;}
	.st1{fill:#222222;}
</style>
<g>
	<path class="st0" d="M22.8,32.3h5.7c1.1,0,1.9-0.9,1.9-1.9c0-1.1-0.9-1.9-1.9-1.9h-5.7c-1.1,0-1.9,0.9-1.9,1.9
		C20.9,31.5,21.7,32.3,22.8,32.3z"/>
	<path class="st0" d="M36.1,32.3h5.7c1.1,0,1.9-0.9,1.9-1.9c0-1.1-0.9-1.9-1.9-1.9h-5.7c-1.1,0-1.9,0.9-1.9,1.9
		C34.2,31.5,35.1,32.3,36.1,32.3z"/>
	<path class="st0" d="M49.4,32.3h5.7c1.1,0,1.9-0.9,1.9-1.9c0-1.1-0.9-1.9-1.9-1.9h-5.7c-1.1,0-1.9,0.9-1.9,1.9
		C47.5,31.5,48.4,32.3,49.4,32.3z"/>
	<path class="st1" d="M89.1,63.1c-0.5-0.9-1.6-1.3-2.5-0.9c-5,2.4-8.5,3.1-14,1.9l13.1-23c1.7-2.6,1-6.2-1.7-7.9
		c-0.9-0.6-2.1-0.9-3.2-0.9h-9.5l-10.7-10c-1-0.9-2.4-1.4-3.7-1.4h-0.5V19c0-3.2-2.6-5.7-5.7-5.7h-9.5L37,3.5C36.1,1.4,34,0,31.7,0
		h-4.5c-3.2,0-5.7,2.5-5.8,5.7c0,0.3,0,0.6,0.1,0.9l1,6.8c-3,0.1-5.4,2.7-5.4,5.7v2c-2.2,0.4-3.9,1.9-4.5,4.1L10,34.2H7.6
		c-3.2,0-5.7,2.5-5.7,5.7c0,0.7,0.1,1.4,0.4,2.1l8.1,22.4c-2.6-0.4-5.2-1.1-7.6-2.2c-0.9-0.5-2.1-0.1-2.5,0.9
		C-0.3,64,0.1,65.2,1,65.6c7.6,3.7,14.4,3.8,22.1,0.4c7.4,3.3,15.7,3.3,23.1,0c7.4,3.3,12.6,3.3,20.1,0C70,67.7,74,68.5,78,68.5
		c4.3,0,6.4-1,10.3-2.9C89.2,65.1,89.6,64,89.1,63.1z M27.2,3.8h4.5c0.8,0,1.5,0.5,1.8,1.2l3.6,8.4H26.4l-1-7.3
		c-0.1-1,0.6-2,1.6-2.1C27,3.8,27.1,3.8,27.2,3.8L27.2,3.8z M20.9,19c0-1.1,0.9-1.9,1.9-1.9h27.9c1.1,0,1.9,0.9,1.9,1.9v1.9H20.9V19
		z M16.2,26.1c0.2-0.8,1-1.4,1.9-1.4h38.8c0.5,0,0.9,0.2,1.2,0.5l7.3,7.2h-5.3c-0.6,0-1.2,0.3-1.5,0.8l-5.1,6.8H25.7l-3.3-4.9
		c-0.3-0.5-0.9-0.8-1.5-0.9h-7L16.2,26.1z M7.6,38H20l3.2,4.9c0.3,0.5,0.9,0.8,1.5,0.9h29.8c0.6,0,1.2-0.3,1.5-0.8l5.1-6.8h19.7
		c1.1,0,1.9,0.8,1.9,1.9c0,0.4-0.1,0.7-0.3,1L76,49.5H9.3l-3.6-8.8c-0.4-1,0.1-2.1,1.1-2.5C7,38.1,7.3,38,7.6,38L7.6,38z M65.5,62.2
		c-6.8,3.3-11.6,3.3-18.4,0c-0.5-0.3-1.1-0.3-1.7,0c-6.8,3.3-14.6,3.3-21.5,0c-0.5-0.3-1.1-0.3-1.7,0c-3.1,1.5-4.4,2.3-7.8,2.4
		l-3.7-11.4h62.8l-4.8,9.7c-0.6-0.2-1.1-0.4-1.7-0.7C66.6,62,66,62,65.5,62.2z"/>
</g>
</svg>
