<svg xmlns="http://www.w3.org/2000/svg" width="55" height="36" viewBox="0 0 55 36"><g transform="translate(0 0)" opacity="0.9"><path d="M1122.679,745.457a.907.907,0,1,0-.931-.907A.92.92,0,0,0,1122.679,745.457Z" transform="translate(-1097.965 -720.373)" fill="#fff"/><path d="M1125.566,743.643a.907.907,0,1,0,.932.907A.919.919,0,0,0,1125.566,743.643Z" transform="translate(-1095.559 -720.373)" fill="#fff"/><path d="M1159.164,731.1a.957.957,0,0,0-.766-.382h-44.3a.956.956,0,0,0-.768.382l-4.376,5.965a.9.9,0,0,0-.075.959.951.951,0,0,0,.844.506l1.435-.108v3.96a4.406,4.406,0,0,0,4.457,4.341,4.609,4.609,0,0,0,1.26-.178v16.833h-5.192v3.339h48.906v-3.339H1155.4V746.542a4.623,4.623,0,0,0,1.261.178,4.407,4.407,0,0,0,4.457-4.341v-3.96l1.712.108a.952.952,0,0,0,.845-.506.9.9,0,0,0-.075-.959Zm-2.506,13.779a2.532,2.532,0,0,1-2.565-2.5v-3.96h5.124v3.96A2.529,2.529,0,0,1,1156.657,744.875Zm-43.605-5.155v-1.3h5.126v3.96a2.564,2.564,0,0,1-5.126,0Zm23.1,5.155a2.532,2.532,0,0,1-2.565-2.5v-3.96h5.126v3.96A2.531,2.531,0,0,1,1136.154,744.875Zm-12.815-2.5v-3.96h5.126v3.96a2.564,2.564,0,0,1-5.126,0Zm20.5,0v-3.96h5.126v3.96a2.564,2.564,0,0,1-5.126,0Zm-15.576,3.677h.365a4.5,4.5,0,0,0,2.365.664h.033a4.485,4.485,0,0,0,2.361-.664h.367a4.45,4.45,0,0,0,1.813.628v16.691h-8.434V746.55A4.574,4.574,0,0,0,1128.265,746.056Zm8.439,17.32V746.685a4.451,4.451,0,0,0,1.811-.628h.367a4.494,4.494,0,0,0,2.361.664h.035a4.494,4.494,0,0,0,2.363-.664h.365a4.647,4.647,0,0,0,1.13.493v16.826Z" transform="translate(-1108.775 -730.715)" fill="#fff"/></g></svg>