<svg xmlns="http://www.w3.org/2000/svg" width="55" height="40" viewBox="0 0 55 40"><g transform="translate(0)" opacity="0.9"><path d="M1113.157,741.146a3,3,0,0,0-.654-1.863c-.468-.065-.953-.116-1.457-.142h-.008a7.343,7.343,0,0,0-3.732,1.6,2.944,2.944,0,1,0,5.852.407Z" transform="translate(-1065.032 -709.144)" fill="#fff"/><path d="M1118.057,740.732a16.5,16.5,0,0,0-2.768-1.017,5.036,5.036,0,0,1,.208,1.362,4.9,4.9,0,0,1-9.692,1.1,19.941,19.941,0,0,0-1.827,1.856,2.967,2.967,0,0,1-.473.448,7.839,7.839,0,0,0,7.081,4.594,7.938,7.938,0,0,0,7.857-8c0-.068-.014-.134-.016-.2A2.712,2.712,0,0,1,1118.057,740.732Z" transform="translate(-1065.408 -709.076)" fill="#fff"/><path d="M1080.2,745.5a4.824,4.824,0,0,1-2.93-1h-3.849a7.747,7.747,0,0,0,13.56,0h-3.85A4.826,4.826,0,0,1,1080.2,745.5Z" transform="translate(-1068.416 -708.501)" fill="#fff"/><path d="M1114.544,725.993l-1.782-.907,1-1.02a1.006,1.006,0,0,0,.287-.707v-4a.989.989,0,0,0-.981-1h-7.246l-.453-.928a3.013,3.013,0,0,0,.824-2.072,3.079,3.079,0,1,0-2.584,2.963l.693,1.425.768,2.344a22.653,22.653,0,0,1-.272,14.869l-1.251,3.4h-7.177v-9a1,1,0,0,0-.3-.713,2.991,2.991,0,0,0-2.651-4.287h-11.786a2.977,2.977,0,0,0-2.946,3,3.009,3.009,0,0,0,.18,1h-1.163a.967.967,0,0,0-.545.168,18.313,18.313,0,0,0-7.7,11.707l-.574,2.928a1.016,1.016,0,0,0,.2.831.975.975,0,0,0,.76.366h35.357a.971.971,0,0,0,.744-.348c1.38-1.631,5.7-5.886,9.029-5.654a19.759,19.759,0,0,1,7.452,1.887.951.951,0,0,0,.962-.03,1,1,0,0,0,.474-.855A17.12,17.12,0,0,0,1114.544,725.993Zm-23.084,16.366a.992.992,0,0,1-.983-1,4.962,4.962,0,0,0-4.91-5h-3.453a4.839,4.839,0,0,0-3.473,1.465l-4.165,4.243a.969.969,0,0,1-1.389,0,1.012,1.012,0,0,1,0-1.415l4.166-4.241a6.768,6.768,0,0,1,4.862-2.051h3.453a6.947,6.947,0,0,1,6.875,7A.992.992,0,0,1,1091.461,742.359Zm27.156-5.063a.965.965,0,0,1-.635.237.976.976,0,0,1-.749-.353,8.1,8.1,0,0,0-6.082-2.824,1,1,0,0,1-.094-2,9.964,9.964,0,0,1,7.673,3.528A1.011,1.011,0,0,1,1118.617,737.3Z" transform="translate(-1068.871 -712.358)" fill="#fff"/></g></svg>